<?xml version="1.0" standalone="no"?>
<!DOCTYPE svg PUBLIC "-//W3C//DTD SVG 20010904//EN"
 "http://www.w3.org/TR/2001/REC-SVG-20010904/DTD/svg10.dtd">
<svg version="1.0" xmlns="http://www.w3.org/2000/svg"
 width="512.000000pt" height="384.000000pt" viewBox="0 0 512.000000 384.000000"
 preserveAspectRatio="xMidYMid meet">

<g transform="translate(0.000000,384.000000) scale(0.100000,-0.100000)"
fill="#000000" stroke="none">
<path d="M1370 3496 l0 -215 -121 -3 -120 -3 -41 -90 c-22 -49 -56 -124 -75
-165 l-34 -75 -73 165 -74 165 -78 0 -78 0 -71 -157 c-38 -86 -72 -159 -75
-162 -3 -3 -39 69 -79 160 l-74 164 -99 0 -98 0 0 -49 c0 -44 14 -76 136 -303
75 -139 141 -259 146 -265 6 -8 35 -13 73 -13 38 0 67 5 73 13 5 6 39 77 74
156 35 79 67 144 71 145 5 0 39 -69 77 -154 l69 -155 73 0 73 0 160 298 160
299 3 -301 2 -302 108 3 107 3 5 200 c5 215 8 228 61 259 45 27 103 21 137
-13 39 -39 42 -61 42 -272 l0 -179 105 0 105 0 0 238 c0 209 -3 242 -19 277
-23 51 -54 78 -115 106 -100 44 -204 36 -278 -22 l-38 -30 -2 243 -3 243 -107
3 -108 3 0 -215z"/>
<path d="M2140 3632 c-34 -34 -40 -46 -40 -81 0 -79 51 -133 125 -133 74 0
125 54 125 132 0 32 -7 48 -33 76 -28 31 -41 37 -85 42 -50 4 -53 3 -92 -36z"/>
<path d="M2460 3400 l0 -120 -45 0 -45 0 0 -80 0 -80 45 0 45 0 0 -143 c0
-207 26 -278 114 -318 63 -28 193 -23 245 10 12 8 10 23 -13 95 -24 78 -28 85
-46 76 -26 -14 -46 -12 -64 6 -13 12 -16 41 -16 145 l0 129 65 0 65 0 0 80 0
80 -65 0 -64 0 -3 118 -3 117 -107 3 -108 3 0 -121z"/>
<path d="M3038 3287 c-148 -56 -238 -176 -238 -317 0 -122 76 -242 188 -297
52 -26 67 -28 168 -28 107 0 113 1 179 35 41 21 81 51 102 77 l35 42 -79 39
-78 39 -37 -30 c-29 -23 -51 -31 -91 -35 -88 -7 -144 27 -161 101 l-6 27 231
0 232 0 -6 68 c-15 178 -129 282 -317 289 -55 2 -98 -2 -122 -10z m166 -137
c23 -8 66 -62 66 -82 0 -5 -54 -8 -120 -8 -137 0 -146 6 -86 66 27 27 42 34
74 34 23 0 52 -4 66 -10z"/>
<path d="M2112 2968 l3 -313 108 -3 107 -3 0 316 0 315 -110 0 -110 0 2 -312z"/>
<path d="M0 2450 l0 -140 105 0 105 0 0 -405 0 -405 110 0 110 0 0 36 0 36 35
-31 c72 -62 200 -76 301 -31 56 24 127 97 150 155 11 25 21 45 24 45 4 0 12
-16 18 -35 18 -47 89 -118 151 -149 28 -15 84 -31 125 -38 175 -27 348 49 413
181 l19 39 22 -48 c27 -58 89 -122 145 -149 96 -47 230 -33 302 30 l35 31 0
-36 0 -36 110 0 110 0 0 315 0 315 -110 0 -110 0 0 -31 0 -30 -33 25 c-45 35
-147 60 -206 51 -107 -16 -194 -80 -243 -178 l-24 -49 -19 41 c-22 51 -87 111
-153 145 -186 94 -442 23 -529 -148 -26 -50 -26 -51 -34 -24 -21 77 -119 177
-196 199 -97 28 -225 7 -285 -48 -17 -15 -18 -11 -18 105 l0 122 640 0 640 0
0 140 0 140 -855 0 -855 0 0 -140z m647 -510 c68 -41 90 -119 54 -192 -26 -54
-65 -78 -126 -78 -90 0 -145 54 -145 143 0 59 21 102 63 127 42 26 112 26 154
0z m760 -22 c29 -29 37 -46 41 -86 9 -97 -48 -162 -143 -162 -97 0 -151 60
-143 157 4 42 11 60 34 84 39 42 60 49 122 46 46 -3 59 -9 89 -39z m693 27
c86 -45 102 -171 30 -240 -26 -24 -40 -30 -94 -33 -59 -4 -65 -2 -99 28 -58
50 -71 135 -30 198 35 56 130 80 193 47z"/>
<path d="M3470 2310 l0 -239 -47 29 c-93 58 -225 60 -318 5 -51 -29 -87 -70
-123 -139 -24 -46 -27 -62 -27 -151 0 -81 4 -109 21 -146 82 -178 305 -243
450 -133 l44 34 0 -35 0 -35 105 0 105 0 0 525 0 525 -105 0 -105 0 0 -240z
m-43 -392 c29 -29 37 -46 41 -86 9 -97 -48 -162 -143 -162 -97 0 -151 60 -143
157 4 42 11 60 34 84 39 42 60 49 122 46 46 -3 59 -9 89 -39z"/>
<path d="M2825 2141 c-44 -11 -87 -36 -115 -66 l-25 -27 -5 39 -5 38 -107 3
-108 3 0 -316 0 -315 109 0 110 0 3 194 3 195 29 30 c44 46 106 51 188 17 14
-6 25 8 57 73 23 44 41 85 41 91 0 28 -118 56 -175 41z"/>
<path d="M3949 2140 c-100 -18 -169 -73 -190 -152 -27 -99 21 -166 169 -234
101 -47 115 -69 66 -101 -23 -14 -32 -15 -73 -4 -25 6 -63 23 -84 37 -22 14
-40 24 -42 22 -1 -2 -22 -34 -45 -73 l-42 -69 21 -17 c49 -40 132 -63 231 -63
165 -1 255 48 280 153 19 80 6 128 -49 182 -37 35 -66 52 -131 75 -85 30 -108
48 -97 78 8 21 113 22 164 1 19 -8 37 -15 39 -15 10 0 65 124 60 136 -12 31
-191 60 -277 44z"/>
<path d="M4345 1741 c-135 -92 -35 -302 119 -251 100 33 124 160 46 235 -40
38 -120 46 -165 16z"/>
</g>
</svg>
